<svg width="154" height="60" viewBox="0 0 154 60" fill="none" xmlns="http://www.w3.org/2000/svg">
<path d="M68.0188 34.9554C68.0188 38.3436 70.1364 39.0778 73.44 39.0495H77.1388C79.8494 39.0495 80.4141 38.7389 81.9106 37.186V38.8236H87.0494V29.3648C87.0494 25.9766 85.0729 24.1978 81.3459 24.1978H75.0494C70.4753 24.1978 68.5553 24.8472 68.5553 28.7436H73.807C73.8635 27.7272 74.3153 27.586 75.8964 27.586H79.087C81.2047 27.586 81.6282 28.0942 81.6282 29.506V30.7766C80.5835 29.7036 78.9459 29.6189 75.9812 29.6189C70.7294 29.6189 68.0188 29.8448 68.0188 33.7695V34.9554ZM76.1223 35.6613C74.0047 35.6613 73.2706 35.2942 73.2706 34.3625C73.2706 33.1766 73.7506 32.6683 76.0376 32.6683H78.4376C81.4306 32.6683 81.7412 33.0636 81.7412 34.1366C81.7412 35.0966 81.4023 35.6613 77.6753 35.6613H76.1223Z" fill="#323232"/>
<path d="M95.9336 30.9178C95.9336 28.7436 97.063 28.2636 99.2089 28.2636H102.061C104.658 28.2636 104.912 29.1672 104.912 30.7766V32.4707C104.912 34.0801 104.658 34.9836 102.061 34.9836H99.2089C97.063 34.9836 95.9336 34.5036 95.9336 32.3295V30.9178ZM90.5124 43.8495H95.9336V36.3389H95.9901C97.2042 38.626 98.2771 39.0495 101.355 39.0495H102.456C109.317 39.0495 110.164 36.593 110.164 32.9225V30.3248C110.164 26.6542 109.317 24.1978 102.456 24.1978H100.903C97.7406 24.1978 96.4983 25.2989 95.8206 26.5695H95.7642V24.4236H90.5124V43.8495Z" fill="#323232"/>
<path d="M112.859 32.2166C112.859 38.3719 116.642 39.0495 120.228 39.0495H124.294C128.219 39.0495 131.437 38.2589 131.437 34.6448V34.0236H126.355C126.355 34.8707 126.214 35.6613 123.277 35.6613H121.612C119.353 35.6613 118.28 35.2378 118.28 33.713V32.8378H131.437V30.4095C131.437 25.4119 129.066 24.1978 123.306 24.1978H119.522C115.569 24.1978 112.859 25.3836 112.859 30.833V32.2166ZM118.28 29.6189C118.28 27.8966 118.703 27.586 122.233 27.586C125.395 27.586 126.186 27.8966 126.186 29.6189H118.28Z" fill="#323232"/>
<path d="M132.798 38.8236H139.659L143.104 33.9672L146.549 38.8236H153.41L147.255 31.2566L152.902 24.4236H145.871L143.104 28.3201L140.337 24.4236H133.306L138.953 31.2566L132.798 38.8236Z" fill="#323232"/>
<g clip-path="url(#clip0)">
<path d="M52.1579 13.0407L30.9497 0.725191C29.2754 -0.24173 27.1952 -0.24173 25.5209 0.725191L4.31268 13.0407C2.63835 14.0076 1.57286 15.8397 1.57286 17.7735V19.5038C0.456644 20.0636 -0.304415 21.3359 0.0507456 22.7608C0.304432 23.8295 1.16697 24.6438 2.23245 24.8473C4.05899 25.2036 5.68258 23.8295 5.68258 22.0483C5.68258 20.9288 5.023 19.9618 4.05899 19.5038V17.7735C4.05899 16.7048 4.6171 15.7379 5.53037 15.1781L26.7386 2.8626C27.1952 2.60814 27.7026 2.45547 28.2099 2.45547C28.7173 2.45547 29.2247 2.60814 29.6813 2.8626L50.8895 15.1272C51.8028 15.6361 52.3609 16.6539 52.3609 17.7226L52.3101 25.0509C52.1072 30.8524 47.693 35.5344 42.1627 36.0941L42.1119 27.5954C42.1119 27.2392 41.909 26.9338 41.6046 26.7303L37.3934 24.2366C36.9367 23.9822 36.3279 24.1349 36.0742 24.5929L34.5521 27.0356L31.6601 25.3562C31.3049 25.1527 30.899 25.3053 30.6961 25.6107L29.935 26.9847C29.7321 27.341 29.8843 27.7481 30.1887 27.9517L33.03 29.5802L30.138 34.2621L27.4489 32.7354C27.0937 32.5318 26.6878 32.6845 26.4849 32.9898L25.7238 34.3639C25.5209 34.7201 25.6223 35.1272 25.9775 35.3308L28.5651 36.8575L27.0937 39.2494C26.9415 39.5038 26.8908 39.7583 26.9922 40.0127C27.043 40.2672 27.2459 40.5216 27.4996 40.6234L32.1167 43.117C32.2689 43.2188 32.4211 43.2188 32.5733 43.2188C32.7255 43.2188 32.9285 43.1679 33.03 43.117L41.1479 38.6387C48.5048 38.5878 54.4918 32.6845 54.7963 25.1527L54.847 17.7226C54.8977 15.7888 53.8323 14.0076 52.1579 13.0407ZM4.16046 21.7939C4.36341 22.7608 3.50088 23.5751 2.53687 23.4224C2.0295 23.3206 1.57286 22.8626 1.47139 22.3537C1.26844 21.3868 2.13097 20.5725 3.09498 20.7252C3.65309 20.827 4.05899 21.2341 4.16046 21.7939Z" fill="#154984"/>
<path d="M53.6293 34.8727C52.0564 34.8727 50.788 36.145 50.788 37.7226C50.788 38.8422 51.4476 39.8091 52.4116 40.2671V42.2519C52.4116 43.3206 51.8535 44.2875 50.9402 44.8473L29.732 57.1119C28.8188 57.6208 27.7026 57.6208 26.7893 57.1119L5.53037 44.8982C4.6171 44.3893 4.05899 43.3714 4.05899 42.3027L4.10972 34.9236C4.36341 29.2239 8.5746 24.6437 13.9528 23.9312L14.0542 32.4809C14.0542 32.8371 14.2572 33.1424 14.5616 33.346L18.8235 35.7887C18.9757 35.8905 19.128 35.9414 19.3309 35.9414C19.6861 35.9414 19.9905 35.7887 20.1934 35.4834L29.0217 20.776C29.1739 20.5216 29.2247 20.2671 29.1232 20.0127C29.0725 19.7582 28.8695 19.5038 28.6158 19.402L23.9987 16.9592C23.6943 16.8066 23.3391 16.8066 23.0347 16.9592L15.069 21.3867C7.81354 21.5394 1.97876 27.3918 1.67433 34.8727L1.6236 42.3027C1.6236 44.2366 2.68908 46.0686 4.36341 47.0356L25.5716 59.3002C26.4341 59.8091 27.3474 60.0127 28.3114 60.0127C29.2247 60.0127 30.1887 59.7582 31.0512 59.3002L52.2594 47.0356C53.9337 46.0686 54.9992 44.2366 54.9992 42.3027V40.318C55.9632 39.86 56.6228 38.8931 56.6228 37.7735C56.4706 36.145 55.2022 34.8727 53.6293 34.8727ZM53.6293 39.0966C52.8682 39.0966 52.2594 38.4859 52.2594 37.7226C52.2594 36.9592 52.8682 36.3485 53.6293 36.3485C54.3904 36.3485 54.9992 36.9592 54.9992 37.7226C54.9992 38.4859 54.3904 39.0966 53.6293 39.0966Z" fill="#154984"/>
<path d="M45.968 39.1985V39.8092C45.968 40.0636 45.8158 40.3181 45.6128 40.4708L28.5651 50.3435C28.4636 50.3944 28.3114 50.4453 28.2099 50.4453C28.1084 50.4453 27.9562 50.3944 27.8548 50.3435L10.9085 40.7252C10.6548 40.5725 10.5533 40.369 10.5533 40.0636V26.5776C9.1327 27.3919 7.96574 28.5624 7.10321 29.9364V40.0636C7.10321 41.5904 7.91501 42.9644 9.23418 43.7278L26.1804 53.3461C26.84 53.7023 27.5503 53.9059 28.2607 53.9059C28.971 53.9059 29.732 53.7023 30.3409 53.3461L47.3379 43.5242C48.657 42.7608 49.4181 41.3868 49.4181 39.8601V37.5191C48.3526 38.2316 47.1857 38.7914 45.968 39.1985Z" fill="#E01F5B"/>
<path d="M47.3379 16.5523L30.3409 6.73045C29.6813 6.37422 28.971 6.17065 28.2607 6.17065C27.5503 6.17065 26.7893 6.37422 26.1804 6.73045L9.18344 16.5523C7.86427 17.3157 7.10321 18.6897 7.10321 20.2165V22.5574C8.16869 21.845 9.33565 21.2852 10.5533 20.8271V20.2165C10.5533 19.962 10.7056 19.7076 10.9085 19.5549L27.8548 9.733C27.9562 9.6821 28.1084 9.63121 28.2099 9.63121C28.3621 9.63121 28.4636 9.6821 28.5651 9.733L45.5113 19.5549C45.765 19.7076 45.8665 19.9111 45.8665 20.2165V33.448C47.2871 32.6338 48.4541 31.4633 49.3166 30.0892V20.1656C49.4181 18.6897 48.6063 17.3157 47.3379 16.5523Z" fill="#EBB22C"/>
</g>
<defs>
<clipPath id="clip0">
<rect width="56.4706" height="60" fill="white"/>
</clipPath>
</defs>
</svg>
